# xmcd
#
# Track frame offsets:
#	187
#	13540
#	27827
#	40442
#	49887
#	61950
#	74430
#	86360
#	99235
#	109007
#	118670
#
# Disc length: 1755 seconds
#
# Revision: 3
# Processed by: cddbd v1.5.2PL0 Copyright (c) Steve Scherf et al.
# Submitted via: audiograbber 1.83.01
#
DISCID=8a06d90b
DTITLE=Lynn Anderson - Lynn Anderson's Greatest Hits
DYEAR=1900
DGENRE=Oldies
TTITLE0=Rose Garden
TTITLE1=Cry
TTITLE2=How Can I Unlove You
TTITLE3=Stay There 'Til I Get There
TTITLE4=That's What Loving You Has Meant To Me
TTITLE5=Listen To A Country Song
TTITLE6=You're My Man
TTITLE7=No Love At All
TTITLE8=Don't Say Things You Don't Mean
TTITLE9=I'm Gonna Write A Song
TTITLE10=Nothing Between Us
EXTD=
EXTT0=
EXTT1=
EXTT2=
EXTT3=
EXTT4=
EXTT5=
EXTT6=
EXTT7=
EXTT8=
EXTT9=
EXTT10=
PLAYORDER=
